<?xml version="1.0" encoding="utf-8"?>
<!-- Generated by Mocodo 4.0.1 -->
<svg width="576" height="263" viewBox="0 0 576 263" xmlns="http://www.w3.org/2000/svg">
<rect x="0" y="0" width="576" height="263" fill="#f7f7f7" stroke="none" stroke-width="0"/>

<!-- Association AVOIR -->
<g>
	<line x1="291" y1="60" x2="180" y2="60" stroke="#d6604d" stroke-width="2"/>
	<line x1="65" y1="60" x2="180" y2="60" stroke="#d6604d" stroke-width="2"/>
	<g>
		<path d="M193 35 a14 14 90 0 1 14 14 V60 h-54 V49 a14 14 90 0 1 14 -14" fill="#f4a582" stroke="#f4a582" stroke-width="0"/>
		<path d="M207 60 v11 a14 14 90 0 1 -14 14 H167 a14 14 90 0 1 -14 -14 V60 H54" fill="#fddbc7" stroke="#fddbc7" stroke-width="0"/>
		<rect x="153" y="35" width="54" height="50" fill="none" rx="14" stroke="#d6604d" stroke-width="2"/>
		<line x1="153" y1="60" x2="207" y2="60" stroke="#d6604d" stroke-width="1"/>
		<text x="160" y="52.75" fill="#000000" font-family="Verdana" font-size="12">AVOIR</text>
	</g>
	<text x="213" y="52" fill="#2166ac" font-family="Verdana" font-size="12">0,N</text>
	<text x="115" y="77" fill="#2166ac" font-family="Verdana" font-size="12">N,N</text>
</g>

<!-- Association POSTER -->
<g>
	<line x1="522" y1="60" x2="412" y2="60" stroke="#d6604d" stroke-width="2"/>
	<line x1="291" y1="60" x2="412" y2="60" stroke="#d6604d" stroke-width="2"/>
	<g>
		<path d="M430 35 a14 14 90 0 1 14 14 V60 h-64 V49 a14 14 90 0 1 14 -14" fill="#f4a582" stroke="#f4a582" stroke-width="0"/>
		<path d="M444 60 v11 a14 14 90 0 1 -14 14 H394 a14 14 90 0 1 -14 -14 V60 H64" fill="#fddbc7" stroke="#fddbc7" stroke-width="0"/>
		<rect x="380" y="35" width="64" height="50" fill="none" rx="14" stroke="#d6604d" stroke-width="2"/>
		<line x1="380" y1="60" x2="444" y2="60" stroke="#d6604d" stroke-width="1"/>
		<text x="388" y="52.75" fill="#000000" font-family="Verdana" font-size="12">POSTER</text>
	</g>
	<text x="450" y="77" fill="#2166ac" font-family="Verdana" font-size="12">1,N</text>
	<text x="347" y="77" fill="#2166ac" font-family="Verdana" font-size="12">0,N</text>
</g>

<!-- Association ECRIT -->
<g>
	<line x1="65" y1="195" x2="180" y2="195" stroke="#d6604d" stroke-width="2"/>
	<line x1="291" y1="60" x2="180" y2="195" stroke="#d6604d" stroke-width="2"/>
	<g>
		<path d="M192 170 a14 14 90 0 1 14 14 V195 h-52 V184 a14 14 90 0 1 14 -14" fill="#f4a582" stroke="#f4a582" stroke-width="0"/>
		<path d="M206 195 v11 a14 14 90 0 1 -14 14 H168 a14 14 90 0 1 -14 -14 V195 H52" fill="#fddbc7" stroke="#fddbc7" stroke-width="0"/>
		<rect x="154" y="170" width="52" height="50" fill="none" rx="14" stroke="#d6604d" stroke-width="2"/>
		<line x1="154" y1="195" x2="206" y2="195" stroke="#d6604d" stroke-width="1"/>
		<text x="161" y="187.75" fill="#000000" font-family="Verdana" font-size="12">ECRIT</text>
	</g>
	<text x="126" y="212" fill="#2166ac" font-family="Verdana" font-size="12">1,N</text>
	<text x="247.97" y="128" fill="#2166ac" font-family="Verdana" font-size="12">0,N</text>
</g>

<!-- Association FABRIQUER -->
<g>
	<line x1="291" y1="60" x2="291" y2="195" stroke="#d6604d" stroke-width="2"/>
	<line x1="412" y1="195" x2="291" y2="195" stroke="#d6604d" stroke-width="2"/>
	<g>
		<path d="M320 170 a14 14 90 0 1 14 14 V195 h-86 V184 a14 14 90 0 1 14 -14" fill="#f4a582" stroke="#f4a582" stroke-width="0"/>
		<path d="M334 195 v11 a14 14 90 0 1 -14 14 H262 a14 14 90 0 1 -14 -14 V195 H86" fill="#fddbc7" stroke="#fddbc7" stroke-width="0"/>
		<rect x="248" y="170" width="86" height="50" fill="none" rx="14" stroke="#d6604d" stroke-width="2"/>
		<line x1="248" y1="195" x2="334" y2="195" stroke="#d6604d" stroke-width="1"/>
		<text x="255" y="187.75" fill="#000000" font-family="Verdana" font-size="12">FABRIQUER</text>
	</g>
	<text x="296" y="128" fill="#2166ac" font-family="Verdana" font-size="12">0,N</text>
	<text x="340" y="212" fill="#2166ac" font-family="Verdana" font-size="12">1,N</text>
</g>

<!-- Entity FAVORIS -->
<g>
	<g>
		<rect x="20" y="18" width="90" height="25" fill="#92c5de" stroke="none" stroke-width="0" opacity="1"/>
		<rect x="20" y="43" width="90" height="59" fill="#d1e5f0" stroke="none" stroke-width="0" opacity="1"/>
		<rect x="20" y="18" width="90" height="84" fill="none" stroke="#4393c3" stroke-width="2" opacity="1"/>
		<line x1="20" y1="43" x2="110" y2="43" stroke="#4393c3" stroke-width="1"/>
	</g>
	<text x="38" y="35.75" fill="#000000" font-family="Verdana" font-size="12">FAVORIS</text>
	<text x="25" y="60.8" fill="#000000" font-family="Verdana" font-size="12">id</text>
	<line x1="25" y1="63" x2="37" y2="63" stroke="#000000" stroke-width="1"/>
	<text x="25" y="77.8" fill="#000000" font-family="Verdana" font-size="12">utilisateur_id</text>
	<text x="25" y="94.8" fill="#000000" font-family="Verdana" font-size="12">origami_id</text>
</g>

<!-- Entity UTILISATEURS -->
<g>
	<g>
		<rect x="240" y="9" width="102" height="25" fill="#92c5de" stroke="none" stroke-width="0" opacity="1"/>
		<rect x="240" y="34" width="102" height="77" fill="#d1e5f0" stroke="none" stroke-width="0" opacity="1"/>
		<rect x="240" y="9" width="102" height="102" fill="none" stroke="#4393c3" stroke-width="2" opacity="1"/>
		<line x1="240" y1="34" x2="342" y2="34" stroke="#4393c3" stroke-width="1"/>
	</g>
	<text x="246" y="26.75" fill="#000000" font-family="Verdana" font-size="12">UTILISATEURS</text>
	<text x="245" y="51.8" fill="#000000" font-family="Verdana" font-size="12">id</text>
	<line x1="245" y1="54" x2="257" y2="54" stroke="#000000" stroke-width="1"/>
	<text x="245" y="68.8" fill="#000000" font-family="Verdana" font-size="12">nom</text>
	<text x="245" y="85.8" fill="#000000" font-family="Verdana" font-size="12">email</text>
	<text x="245" y="102.8" fill="#000000" font-family="Verdana" font-size="12">mot de passe</text>
</g>

<!-- Entity VIDEOS -->
<g>
	<g>
		<rect x="477" y="9" width="90" height="25" fill="#92c5de" stroke="none" stroke-width="0" opacity="1"/>
		<rect x="477" y="34" width="90" height="77" fill="#d1e5f0" stroke="none" stroke-width="0" opacity="1"/>
		<rect x="477" y="9" width="90" height="102" fill="none" stroke="#4393c3" stroke-width="2" opacity="1"/>
		<line x1="477" y1="34" x2="567" y2="34" stroke="#4393c3" stroke-width="1"/>
	</g>
	<text x="498" y="26.75" fill="#000000" font-family="Verdana" font-size="12">VIDEOS</text>
	<text x="482" y="51.8" fill="#000000" font-family="Verdana" font-size="12">id</text>
	<line x1="482" y1="54" x2="494" y2="54" stroke="#000000" stroke-width="1"/>
	<text x="482" y="68.8" fill="#000000" font-family="Verdana" font-size="12">utilisateur_id</text>
	<text x="482" y="85.8" fill="#000000" font-family="Verdana" font-size="12">titre</text>
	<text x="482" y="102.8" fill="#000000" font-family="Verdana" font-size="12">lien_url</text>
</g>

<!-- Entity COMMENTAIRES -->
<g>
	<g>
		<rect x="9" y="144" width="112" height="25" fill="#92c5de" stroke="none" stroke-width="0" opacity="1"/>
		<rect x="9" y="169" width="112" height="77" fill="#d1e5f0" stroke="none" stroke-width="0" opacity="1"/>
		<rect x="9" y="144" width="112" height="102" fill="none" stroke="#4393c3" stroke-width="2" opacity="1"/>
		<line x1="9" y1="169" x2="121" y2="169" stroke="#4393c3" stroke-width="1"/>
	</g>
	<text x="15" y="161.75" fill="#000000" font-family="Verdana" font-size="12">COMMENTAIRES</text>
	<text x="14" y="186.8" fill="#000000" font-family="Verdana" font-size="12">id</text>
	<line x1="14" y1="189" x2="26" y2="189" stroke="#000000" stroke-width="1"/>
	<text x="14" y="203.8" fill="#000000" font-family="Verdana" font-size="12">utilisateur_id</text>
	<text x="14" y="220.8" fill="#000000" font-family="Verdana" font-size="12">nom</text>
	<text x="14" y="237.8" fill="#000000" font-family="Verdana" font-size="12">commentaire</text>
</g>

<!-- Entity ORIGAMIS -->
<g>
	<g>
		<rect x="367" y="136" width="90" height="25" fill="#92c5de" stroke="none" stroke-width="0" opacity="1"/>
		<rect x="367" y="161" width="90" height="93" fill="#d1e5f0" stroke="none" stroke-width="0" opacity="1"/>
		<rect x="367" y="136" width="90" height="118" fill="none" stroke="#4393c3" stroke-width="2" opacity="1"/>
		<line x1="367" y1="161" x2="457" y2="161" stroke="#4393c3" stroke-width="1"/>
	</g>
	<text x="380" y="153.75" fill="#000000" font-family="Verdana" font-size="12">ORIGAMIS</text>
	<text x="372" y="178.8" fill="#000000" font-family="Verdana" font-size="12">id</text>
	<line x1="372" y1="181" x2="384" y2="181" stroke="#000000" stroke-width="1"/>
	<text x="372" y="195.8" fill="#000000" font-family="Verdana" font-size="12">utilisateur_id</text>
	<text x="372" y="212.8" fill="#000000" font-family="Verdana" font-size="12">nom</text>
	<text x="372" y="229.8" fill="#000000" font-family="Verdana" font-size="12">description</text>
	<text x="372" y="246.8" fill="#000000" font-family="Verdana" font-size="12">image</text>
</g>
</svg>